# xmcd CD database file
#
# Track frame offsets:
#	150
#	14729
#	26073
#	37347
#	49267
#	62324
#	77149
#	87690
#	102867
#	114517
#	124229
#	138447
#	152941
#	167220
#	182450
#	197228
#	206185
#	218601
#	233724
#	243783
#
# Disc length: 3480 seconds
#
# Revision: 1
# Processed by: cddbd v1.5.2PL0 Copyright (c) Steve Scherf et al.
# Submitted via: CDex 1.50
#
DISCID=210d9614
DTITLE=Yves Montand - Un gamin de paris
DYEAR=2003
DGENRE=Chanson
TTITLE0=A paris
TTITLE1=Les grands boulevards
TTITLE2=Un gamin de paris
TTITLE3=Barbara
TTITLE4=Le galerien
TTITLE5=Une demoiselle sur une balancoire
TTITLE6=Bal,petit bal
TTITLE7=Les feuilles mortes
TTITLE8=C'est si bon
TTITLE9=Dans les plaines du far west
TTITLE10=Les enfants qui s'aiment
TTITLE11=Ma douce vallee
TTITLE12=Mathilda
TTITLE13=Clementine
TTITLE14=Dis-moi jo
TTITLE15=Luna park
TTITLE16=Mais qu'est-ce que j'ai
TTITLE17=Les cireurs de souliers de broadway
TTITLE18=Champion du monde
TTITLE19=Le chant des partisans
EXTD=tim 2003 YEAR: 2003
EXTT0=
EXTT1=
EXTT2=
EXTT3=
EXTT4=
EXTT5=
EXTT6=
EXTT7=
EXTT8=
EXTT9=
EXTT10=
EXTT11=
EXTT12=
EXTT13=
EXTT14=
EXTT15=
EXTT16=
EXTT17=
EXTT18=
EXTT19=
PLAYORDER=
